<svg xmlns="http://www.w3.org/2000/svg" xmlns:xlink="http://www.w3.org/1999/xlink" width="302" height="64" viewBox="0 0 302 64">
    <title>Laravel Sail logo</title>
    <path d="M102.1,41.1V18.2h-5.6v28.2h16.3v-5.3H102.1z M130.7,26.3v2.4c-1.4-1.8-3.6-2.9-6.6-2.9c-5.4,0-9.8,4.6-9.8,10.6s4.4,10.6,9.8,10.6c2.9,0,5.1-1.1,6.6-2.9v2.4h5.2V26.3 H130.7z M125.1,42c-3.2,0-5.6-2.3-5.6-5.7c0-3.4,2.4-5.7,5.6-5.7c3.2,0,5.6,2.3,5.6,5.7C130.7,39.7,128.3,42,125.1,42z M145.8,29.7v-3.5h-5.2v20.2h5.2v-9.6c0-4.2,3.4-5.4,6.1-5.1v-5.8C149.4,25.9,146.8,27,145.8,29.7z M169.5,26.3v2.4c-1.4-1.8-3.6-2.9-6.6-2.9c-5.4,0-9.8,4.6-9.8,10.6s4.4,10.6,9.8,10.6c2.9,0,5.1-1.1,6.6-2.9v2.4h5.2V26.3 H169.5z M163.9,42c-3.2,0-5.6-2.3-5.6-5.7c0-3.4,2.4-5.7,5.6-5.7c3.2,0,5.6,2.3,5.6,5.7C169.5,39.7,167.1,42,163.9,42z M192.6,26.3l-4.9,14.1l-4.9-14.1h-5.7l7.6,20.2h5.9l7.6-20.2H192.6z M204.4,38.5h15.2c0.1-0.7,0.2-1.4,0.2-2.1c0-5.9-4.2-10.6-10.2-10.6c-6.3,0-10.6,4.6-10.6,10.6S203.2,47,210,47 c3.9,0,6.9-1.6,8.8-4.3l-4.2-2.4c-0.9,1.2-2.5,2-4.5,2C207.3,42.3,205.1,41.2,204.4,38.5z M204.3,34.5c0.6-2.6,2.5-4.1,5.3-4.1 c2.2,0,4.3,1.2,5,4.1H204.3z M223.4,46.4h5.2V17h-5.2V46.4z"/>
    <path d="M248.4,46.4c-1.6-0.6-3.1-1.5-4.4-2.7l1-1.9c1.3,1.2,2.7,2,4.1,2.5s3,0.8,4.9,0.8c2.3,0,4.1-0.5,5.3-1.4 c1.3-0.9,1.9-2.3,1.9-4c0-1-0.3-1.8-0.9-2.4c-0.6-0.6-1.4-1.1-2.4-1.5c-1-0.4-2.2-0.7-3.8-1.1c-2.1-0.5-3.8-0.9-5.1-1.4 c-1.3-0.5-2.4-1.2-3.3-2.2c-0.9-1-1.3-2.3-1.3-4c0-1.5,0.4-2.9,1.2-4c0.8-1.2,1.9-2.1,3.4-2.7c1.5-0.6,3.1-0.9,5.1-0.9 c1.8,0,3.6,0.3,5.1,0.9c1.6,0.6,2.9,1.5,4.1,2.6l-1,1.9c-1.3-1.1-2.6-2-3.9-2.5c-1.3-0.5-2.8-0.8-4.3-0.8c-2.3,0-4.1,0.5-5.3,1.5 c-1.3,1-1.9,2.3-1.9,4.1c0,1.5,0.6,2.6,1.7,3.3c1.1,0.7,2.7,1.4,4.9,1.9l1.1,0.3c2,0.5,3.6,1,4.8,1.4c1.2,0.5,2.2,1.1,3,2.1 s1.3,2.1,1.3,3.6c0,1.5-0.4,2.8-1.2,3.9c-0.8,1.1-1.9,2-3.4,2.6c-1.5,0.6-3.1,0.9-5.1,0.9C251.9,47.3,250,47,248.4,46.4z M284.7,28v19h-2.3v-3.6c-0.6,1.3-1.4,2.2-2.5,2.9c-1.1,0.7-2.5,1-4,1c-1.7,0-3.2-0.4-4.5-1.2c-1.3-0.8-2.3-1.9-3-3.4 c-0.7-1.5-1-3.2-1-5.2c0-2,0.4-3.7,1.1-5.2c0.7-1.5,1.7-2.7,3-3.5s2.8-1.2,4.4-1.2c1.5,0,2.9,0.3,4,1s2,1.6,2.6,2.9V28H284.7z M280.8,43.2c1.1-1.4,1.6-3.3,1.6-5.8c0-2.5-0.5-4.4-1.6-5.8c-1.1-1.4-2.6-2.1-4.6-2.1s-3.6,0.7-4.7,2.1c-1.1,1.4-1.7,3.4-1.7,5.8 c0,2.5,0.6,4.4,1.7,5.7c1.1,1.4,2.7,2,4.7,2C278.2,45.2,279.7,44.5,280.8,43.2z M290.7,20.1h3.1v3h-3.1V20.1z M291.1,47V28h2.3v19H291.1z M299.7,47V19h2.3v28H299.7z"/>
    <circle id="a" cx="32" cy="32" r="32"/>
    <clipPath id="b"><use xlink:href="#a"  style="overflow:visible;"/></clipPath>
    <g clip-path="url(#b)">
    	<rect fill="#38bdf7" width="64" height="64"/>
    	<path fill="#0d4a6e" d="M58,50.7l-26-40V64h26V50.7z"/>
    	<path fill="#e0f2fe" d="M8,53.1V64h21.3V24L8,53.1z"/>
    </g>
</svg>
